<svg height="33" viewBox="0 0 24 33" width="24" xmlns="http://www.w3.org/2000/svg" xmlns:xlink="http://www.w3.org/1999/xlink"><linearGradient id="a" x1="76.615382%" x2="33.828077%" y1="100%" y2="14.216759%"><stop offset="0" stop-color="#4e5cd4"/><stop offset="1" stop-color="#ac4fe7"/></linearGradient><path d="m732 262.895c-.06-6.585-5.4-11.895-12-11.895s-11.94 5.31-12 11.895v9c0 6.63 5.37 12 12 12s12-5.37 12-12zm-3 0h-7.5v-8.76c4.215.705 7.44 4.35 7.5 8.76zm-10.5-8.76v8.76h-7.5c.06-4.41 3.285-8.055 7.5-8.76zm10.5 17.76c0 4.965-4.035 9-9 9s-9-4.035-9-9v-6h18z" fill="url(#a)" fill-rule="evenodd" transform="translate(-708 -251)"/></svg>